<svg width="402" height="224" viewBox="0 0 402 224" fill="none" xmlns="http://www.w3.org/2000/svg">
<g clip-path="url(#clip0)">
<path d="M164.062 38.9316C191.894 33.1691 220.697 34.0943 248.103 41.6312C275.509 49.1681 300.734 63.1015 321.706 82.2859C342.678 101.47 358.798 125.358 368.74 151.986C378.682 178.613 382.163 207.22 378.896 235.455" stroke="#8FE4CF" stroke-width="8.96" stroke-linecap="round" stroke-linejoin="round"/>
<path d="M74.2702 342.608C54.0466 322.637 38.8516 298.15 29.9342 271.162C21.0169 244.174 18.6318 215.455 22.9751 187.366C27.3183 159.277 38.2659 132.619 54.9178 109.585C71.5698 86.5506 93.4507 67.7971 118.762 54.8659" stroke="#8FE4CF" stroke-width="8.96" stroke-linecap="round" stroke-linejoin="round"/>
<circle r="9.06311" transform="matrix(-0.752271 -0.658854 -0.658854 0.752271 37.3691 137.346)" fill="white" stroke="#8FE4CF" stroke-width="1.44388"/>
<circle r="9.06311" transform="matrix(-0.752271 -0.658854 -0.658854 0.752271 203.867 34.9177)" fill="white" stroke="#8FE4CF" stroke-width="1.44388"/>
<path d="M81.1181 194.432C83.5812 178.464 89.1651 163.138 97.5512 149.328C105.937 135.519 116.961 123.496 129.994 113.947C143.026 104.397 157.812 97.5086 173.507 93.6736C189.201 89.8386 205.498 89.1324 221.465 91.5954" stroke="#72CCFF" stroke-width="8.96" stroke-linecap="round" stroke-linejoin="round"/>
<path d="M241.802 98.554C257.011 104.006 270.997 112.4 282.962 123.258C294.926 134.115 304.635 147.222 311.534 161.832C318.434 176.441 322.387 192.266 323.171 208.404C323.954 224.541 321.551 240.675 316.098 255.884" stroke="#72CCFF" stroke-width="8.96" stroke-linecap="round" stroke-linejoin="round"/>
<circle r="9.07008" transform="matrix(-0.988594 -0.150604 -0.150604 0.988594 282.037 119.321)" fill="white" stroke="#99CEF2" stroke-width="1.44388"/>
<circle r="9.07008" transform="matrix(-0.988594 -0.150604 -0.150604 0.988594 112.93 128.117)" fill="white" stroke="#99CEF2" stroke-width="1.44388"/>
<path fill-rule="evenodd" clip-rule="evenodd" d="M198.119 58.4175C201.023 63.8296 200.678 77.5577 196.925 78.525C195.429 78.9107 192.241 77.9658 188.996 76.0102L191.032 90.4185H179.007L183.146 71.1222C180.838 68.4121 179.275 65.091 179.536 61.3695C180.289 50.6465 195.216 53.0055 198.119 58.4175Z" fill="#FBDABD"/>
<path fill-rule="evenodd" clip-rule="evenodd" d="M191.265 52.1798C189.68 51.9199 185.412 51.7412 184.625 51.7413C184.122 51.7413 183.577 51.8562 183.28 51.3944C183.036 51.0163 183.125 50.3767 183.052 49.9379C182.968 49.4281 182.848 48.9249 182.726 48.4229C182.381 46.9946 181.858 45.6358 181.127 44.36C179.755 41.9665 177.745 40.0916 175.207 39.0006C172.405 37.796 169.234 37.5202 166.22 37.7645C162.994 38.0259 160.075 39.0907 157.029 40.0927C154.127 41.0476 151.087 41.4234 148.052 40.9571C144.994 40.4874 142.683 38.8299 140.104 37.2567C137.463 35.6461 134.445 34.5927 131.323 34.8349C128.409 35.061 125.723 36.2642 123.314 37.8715C121.059 39.3754 119.199 41.1848 118.149 43.7313C117.019 46.4705 117.02 49.4774 118.878 51.8982C121.571 55.4073 126.57 56.3148 130.73 56.2246C133.136 56.1725 135.499 55.7333 137.77 54.9345C140.799 53.869 143.417 52.0631 146.251 50.5979C147.581 49.9103 148.955 49.3456 150.396 48.9388C151.795 48.544 153.172 48.3628 154.438 49.2075C155.777 50.1011 156.977 50.9789 158.509 51.5383C159.979 52.075 161.536 52.3751 163.102 52.363C166.149 52.3395 169.152 51.3902 172.111 50.7543C174.525 50.2359 177.107 49.7192 179.567 50.2175C180.593 50.4255 182.093 50.8549 182.464 51.9218C176.223 53.0528 173.772 60.7705 175.531 66.4361C176.481 69.494 182.189 73.0687 184.408 71.4611C185.814 70.4426 184.96 69.1056 184.408 68.2229C183.35 66.5326 182.988 64.3614 184.945 63.1846C186.634 62.1696 188.409 64.5799 188.443 64.5772C188.907 64.5407 192.917 62.2729 195.679 58.9637C198.405 59.1252 198.818 57.3281 198.167 55.8585C197.517 54.3888 193.455 52.5392 191.265 52.1798Z" fill="#191847"/>
<path d="M185.926 261.683C217.259 261.683 242.659 236.659 242.659 205.789C242.659 174.919 217.259 149.894 185.926 149.894C154.593 149.894 129.193 174.919 129.193 205.789C129.193 236.659 154.593 261.683 185.926 261.683Z" fill="#C5CFD6"/>
<path fill-rule="evenodd" clip-rule="evenodd" d="M260.76 212.678C250.881 200.614 244.197 191.671 240.707 185.848C234.732 175.877 229.841 167.005 228.298 163.616C224.618 155.534 236.771 151.75 239.521 155.519C243.684 161.225 252.574 179.178 266.192 209.38L260.76 212.678Z" fill="#FBDABD"/>
<path fill-rule="evenodd" clip-rule="evenodd" d="M240.516 209.171L222.131 162.891C218.199 154.454 237.188 148.909 240.078 152.835C246.639 161.749 262.233 196.912 264.188 199.567L240.516 209.171Z" fill="#2F3676"/>
<path fill-rule="evenodd" clip-rule="evenodd" d="M195.665 209.986C198.067 204.125 207.102 184.201 212.507 175.598C214.061 173.126 215.583 170.747 217.029 168.523C221.327 161.915 234.181 168.699 229.789 174.821C218.85 190.067 202.6 210.968 201.263 212.808C199.388 215.386 194.156 213.669 195.665 209.986Z" fill="#FBDABD"/>
<path fill-rule="evenodd" clip-rule="evenodd" d="M194.492 210.948C193.932 212.445 193.652 213.564 193.652 214.307C193.652 215.211 193.802 216.529 194.103 218.263C195.151 218.263 204.572 218.263 222.364 218.263C223.099 215.835 222.675 214.524 221.092 214.331C219.51 214.137 218.196 213.962 217.149 213.806L204.014 207.95C203.761 207.838 203.465 207.951 203.352 208.204C203.35 208.208 203.348 208.213 203.346 208.217L202.502 210.265C201.037 210.949 199.847 211.29 198.931 211.29C198.187 211.29 197.16 210.99 195.849 210.389L195.849 210.389C195.345 210.158 194.751 210.379 194.52 210.882C194.51 210.904 194.501 210.926 194.492 210.948Z" fill="#0E112F"/>
<path fill-rule="evenodd" clip-rule="evenodd" d="M256.511 210.875C255.95 212.372 255.67 213.491 255.67 214.234C255.67 215.138 255.82 216.456 256.122 218.19C257.17 218.19 266.59 218.19 284.382 218.19C285.117 215.762 284.693 214.451 283.111 214.258C281.528 214.064 280.214 213.889 279.167 213.733L266.032 207.877C265.779 207.765 265.483 207.878 265.37 208.131C265.368 208.135 265.366 208.14 265.365 208.144L264.52 210.192C263.056 210.876 261.865 211.217 260.949 211.217C260.205 211.217 259.178 210.917 257.867 210.316L257.867 210.316C257.364 210.085 256.769 210.306 256.538 210.809C256.528 210.831 256.519 210.853 256.511 210.875Z" fill="#0E112F"/>
<path fill-rule="evenodd" clip-rule="evenodd" d="M215.516 165.202C200.235 162.713 189.999 161.011 184.81 160.095C170.017 157.487 165.703 149.527 168.253 132.158H195.509C199.116 133.2 214.187 139.642 240.722 151.484C245.496 153.854 244.607 160.842 243.734 163.144C243.699 163.238 235.65 177.029 219.589 204.517L197.293 190.313L215.557 166.876C216.04 165.904 216.026 165.347 215.516 165.202Z" fill="#5C63AB"/>
<path fill-rule="evenodd" clip-rule="evenodd" d="M156.112 126.004L166.583 126.045C160.118 146.916 156.628 157.991 156.112 159.268C154.953 162.141 157.406 166.517 158.456 168.869C155.038 170.398 155.402 164.735 151.092 166.74C147.157 168.571 144.164 171.888 139.618 169.083C139.059 168.738 138.446 167.44 139.926 166.425C143.613 163.897 148.926 159.473 149.644 158.016C150.623 156.03 152.779 145.36 156.112 126.004ZM219.114 124.051L233.308 137.898C237.438 139.66 240.822 141.605 243.46 143.734C244.053 144.449 244.699 145.82 241.908 145.207C239.117 144.593 236.154 144.074 235.629 144.981C235.105 145.889 236.65 147.28 235.681 148.468C235.035 149.26 232.861 146.741 229.16 140.911L214.4 132.209L219.114 124.051Z" fill="#FBDABD"/>
<path fill-rule="evenodd" clip-rule="evenodd" d="M185.869 82.0666L190.202 81.3234C197.661 99.9581 210.685 116.89 229.273 132.119L215.227 149.184C196.641 127.499 185.185 105.127 185.869 82.0666Z" fill="#191847"/>
<path fill-rule="evenodd" clip-rule="evenodd" d="M166.981 136.516H205.563C196.625 114.783 192.156 96.3203 192.156 81.1291L180.517 79.395C171.371 94.1055 168.788 112.217 166.981 136.516Z" fill="#DDE3E9"/>
<path fill-rule="evenodd" clip-rule="evenodd" d="M181.035 79.395C181.944 79.4263 183.329 79.4827 185.189 79.5642L188.001 87.6009C188.299 97.3995 190.036 117.146 193.213 146.841L167.921 146.841C167.988 148.892 168.097 150.962 168.249 153.051H149.444C152.257 121.316 162.529 96.7639 180.262 79.395L180.271 79.4035L180.275 79.395H181.035Z" fill="#2F3676"/>
<path fill-rule="evenodd" clip-rule="evenodd" d="M174.999 147.039L167.928 147.038C167.619 137.841 168.173 129.028 169.592 120.6C170.312 133.384 172.114 142.197 174.999 147.039Z" fill="black" fill-opacity="0.1"/>
<path fill-rule="evenodd" clip-rule="evenodd" d="M173.551 131.506L186.022 125.708V131.506H173.551Z" fill="white" fill-opacity="0.2"/>
</g>
<defs>
<clipPath id="clip0">
<rect width="401.408" height="224" fill="white"/>
</clipPath>
</defs>
</svg>
